<?xml version="1.0" encoding="UTF-8"?>
<svg width="38px" height="30px" viewBox="0 0 38 30" version="1.1" xmlns="http://www.w3.org/2000/svg" xmlns:xlink="http://www.w3.org/1999/xlink">
    <!-- Generator: Sketch 46.2 (44496) - http://www.bohemiancoding.com/sketch -->
    <title>XMLID_1732_</title>
    <desc>Created with Sketch.</desc>
    <defs></defs>
    <g id="NEW" stroke="none" stroke-width="1" fill="none" fill-rule="evenodd">
        <g id="header" transform="translate(-1514.000000, -31.000000)" fill-rule="nonzero" fill="#FFFFFF">
            <path d="M1551.29469,37.7634855 L1546.94771,51.746888 C1546.6227,52.7427386 1545.76955,53.406639 1544.7539,53.406639 L1527.97535,53.406639 C1527.00033,53.406639 1526.06593,52.7842324 1525.74092,51.8713693 L1519.32201,34.3195021 L1515.62504,34.3195021 C1514.73127,34.3195021 1514,33.5726141 1514,32.659751 C1514,31.746888 1514.73127,31 1515.62504,31 L1520.45954,31 C1521.15018,31 1521.75957,31.4564315 1522.00333,32.120332 L1528.62537,50.0871369 L1544.06326,50.0871369 L1547.51647,38.8838174 L1545.17159,38.8838174 C1544.27782,38.8838174 1543.54655,38.1369295 1543.54655,37.2240664 C1543.54655,36.3112033 1544.27782,35.5643154 1545.17159,35.5643154 L1549.7509,35.5643154 C1550.27904,35.5643154 1550.76656,35.8547718 1551.05094,36.2697095 C1551.37595,36.6846473 1551.4572,37.2655602 1551.29469,37.7634855 Z M1528.78787,55.6058091 C1528.09723,55.6058091 1527.40659,55.8962656 1526.91908,56.3941909 C1526.43156,56.8921162 1526.14718,57.5975104 1526.14718,58.3029046 C1526.14718,59.0082988 1526.43156,59.7136929 1526.91908,60.2116183 C1527.40659,60.7095436 1528.09723,61 1528.78787,61 C1529.47852,61 1530.16916,60.7095436 1530.65667,60.2116183 C1531.14418,59.7136929 1531.42857,59.0082988 1531.42857,58.3029046 C1531.42857,57.5975104 1531.14418,56.8921162 1530.65667,56.3941909 C1530.16916,55.8962656 1529.47852,55.6058091 1528.78787,55.6058091 Z M1543.37262,55.6058091 C1542.68198,55.6058091 1541.99133,55.8962656 1541.50382,56.3941909 C1541.01631,56.8921162 1540.73193,57.5975104 1540.73193,58.3029046 C1540.73193,59.0082988 1541.01631,59.7136929 1541.50382,60.2116183 C1541.99133,60.7095436 1542.68198,61 1543.37262,61 C1544.06326,61 1544.7539,60.7095436 1545.24142,60.2116183 C1545.72893,59.7136929 1546.01331,59.0082988 1546.01331,58.3029046 C1546.01331,57.5975104 1545.72893,56.8921162 1545.24142,56.3941909 C1544.7539,55.8962656 1544.06326,55.6058091 1543.37262,55.6058091 Z" id="XMLID_1732_"></path>
        </g>
    </g>
</svg>