<svg width="18" height="14" xmlns="http://www.w3.org/2000/svg"><path d="M17.464 3.157l-2.036 6.526c-.152.465-.551.775-1.027.775H6.544c-.456 0-.894-.29-1.046-.717L2.492 1.55H.761A.77.77 0 0 1 0 .775.77.77 0 0 1 .761 0h2.264a.78.78 0 0 1 .723.523l3.1 8.385h7.23l2.05-6.283c.624-.291 1.032-.347 1.222-.166.152.194.19.465.114.698zM14 5.035a.656.656 0 1 0 0-1.313.656.656 0 0 0 0 1.313zm-4.845 0a.656.656 0 1 0 0-1.313.656.656 0 0 0 0 1.313zm2.423 0a.656.656 0 1 0 0-1.313.656.656 0 0 0 0 1.313zm1.11 2.382a.656.656 0 1 0 0-1.313.656.656 0 0 0 0 1.313zm-4.845 0a.656.656 0 1 0 0-1.313.656.656 0 0 0 0 1.313zm2.422 0a.656.656 0 1 0 0-1.313.656.656 0 0 0 0 1.313zM6.733 5.035a.656.656 0 1 0 0-1.313.656.656 0 0 0 0 1.313zm10.076-1.477a.71.71 0 1 1 0-1.422.71.71 0 0 1 0 1.422zm-9.884 7.926c.323 0 .647.136.875.368.228.232.361.562.361.89 0 .33-.133.66-.361.892a1.243 1.243 0 0 1-.875.368c-.324 0-.647-.136-.875-.368a1.289 1.289 0 0 1-.362-.891 1.243 1.243 0 0 1 1.237-1.259zm6.83 0c.323 0 .646.136.874.368.229.232.362.562.362.89 0 .33-.133.66-.362.892a1.243 1.243 0 0 1-.875.368c-.323 0-.646-.136-.875-.368a1.289 1.289 0 0 1-.361-.891c0-.33.133-.659.361-.891.229-.232.552-.368.875-.368z" fill-rule="nonzero" fill="#FFF"/></svg>